<svg width="140" height="31" viewBox="0 0 140 31" fill="none" xmlns="http://www.w3.org/2000/svg">
<path d="M0 30.2136V0H9.79008L22.6895 25.3298H24.076L23.2357 26.0748V0H28.866V30.2136H19.0339L6.13456 4.88384H4.70596L5.54631 4.13885V30.2136H0Z" fill="#1876D2"/>
<path d="M44.8405 31C42.8237 31 41.045 30.6827 39.5043 30.0481C37.9637 29.4134 36.6611 28.5581 35.5967 27.482C34.5323 26.3783 33.7199 25.1366 33.1597 23.757C32.6275 22.3774 32.3614 20.9426 32.3614 19.4526V18.5834C32.3614 17.0383 32.6415 15.5759 33.2017 14.1963C33.7899 12.7891 34.6163 11.5474 35.6807 10.4713C36.7732 9.3676 38.0897 8.51224 39.6304 7.90521C41.171 7.27058 42.9077 6.95327 44.8405 6.95327C46.7734 6.95327 48.5101 7.27058 50.0507 7.90521C51.5914 8.51224 52.8939 9.3676 53.9583 10.4713C55.0508 11.5474 55.8771 12.7891 56.4374 14.1963C56.9976 15.5759 57.2777 17.0383 57.2777 18.5834V19.4526C57.2777 20.9426 56.9976 22.3774 56.4374 23.757C55.9052 25.1366 55.1068 26.3783 54.0424 27.482C52.9779 28.5581 51.6754 29.4134 50.1348 30.0481C48.5941 30.6827 46.8294 31 44.8405 31ZM44.8405 26.0748C46.2691 26.0748 47.4736 25.7712 48.4541 25.1642C49.4345 24.5296 50.1768 23.688 50.681 22.6395C51.1852 21.5634 51.4373 20.3494 51.4373 18.9973C51.4373 17.6177 51.1712 16.4036 50.639 15.3551C50.1348 14.279 49.3784 13.4375 48.37 12.8304C47.3896 12.1958 46.2131 11.8785 44.8405 11.8785C43.468 11.8785 42.2775 12.1958 41.2691 12.8304C40.2887 13.4375 39.5323 14.279 39.0001 15.3551C38.4679 16.4036 38.2018 17.6177 38.2018 18.9973C38.2018 20.3494 38.4539 21.5634 38.9581 22.6395C39.4903 23.688 40.2466 24.5296 41.227 25.1642C42.2075 25.7712 43.412 26.0748 44.8405 26.0748Z" fill="#1876D2"/>
<path d="M60.2908 30.2136V7.73965H64.9128V11.744C64.9128 10.761 65.2847 9.93324 66.4927 8.8468C67.9383 7.54664 70.347 7.73965 73.0642 7.73965H73.9045V11.9613H72.3078C70.347 11.9613 68.8204 12.9822 67.7279 14.0307C66.6635 15.0516 66.1313 16.5416 66.1313 18.5007V30.2136H60.2908Z" fill="#1876D2"/>
<path d="M88.2203 30.5033C86.1195 30.5033 84.3827 30.2412 83.0102 29.717C81.6656 29.1651 80.6572 28.2546 79.9849 26.9853C79.3126 25.6885 78.9765 23.9502 78.9765 21.7704L79.0185 1.40721H84.4808L84.4388 22.1429C84.4388 23.2466 84.7329 24.1019 85.3211 24.7089C85.9374 25.2884 86.8057 25.5781 87.9262 25.5781H91.4977V30.5033H88.2203ZM75.363 11.9613V7.73965H91.4977V11.9613H75.363Z" fill="#1876D2"/>
<path d="M104.173 30.9172C101.54 30.9172 99.4949 30.0619 98.0383 28.3511C96.6097 26.6404 95.8954 24.1019 95.8954 20.7356V7.69826H101.736V21.2323C101.736 22.6119 102.128 23.7156 102.912 24.5434C103.697 25.3436 104.761 25.7437 106.106 25.7437C107.45 25.7437 108.543 25.316 109.383 24.4606C110.251 23.6053 110.686 22.4464 110.686 20.984V7.69826H116.526V30.9172H111.904V24.6779C111.883 25.2987 112.492 26.28 111.904 27.7976C111.316 29.3151 110.611 29.9032 109.383 30.4206C108.143 30.8862 106.19 30.9172 104.425 30.9172H104.173Z" fill="#1876D2"/>
<path d="M130.042 30.9172C126.905 30.9172 124.44 30.2688 122.647 28.972C120.882 27.6475 119.958 25.8264 119.874 23.5087H125.126C125.21 24.2813 125.644 24.9849 126.428 25.6195C127.213 26.2541 128.445 26.5714 130.126 26.5714C131.526 26.5714 132.633 26.3231 133.445 25.8264C134.286 25.3298 134.706 24.6538 134.706 23.7984C134.706 23.0534 134.384 22.4602 133.739 22.0187C133.123 21.5772 132.059 21.2875 130.546 21.1495L128.529 20.9426C125.98 20.6667 124.019 19.9493 122.647 18.7904C121.274 17.6315 120.588 16.0863 120.588 14.1549C120.588 12.6097 120.98 11.3129 121.764 10.2644C122.549 9.21584 123.627 8.42946 125 7.90521C126.4 7.35336 127.997 7.07744 129.79 7.07744C132.591 7.07744 134.86 7.68447 136.597 8.89853C138.333 10.1126 139.244 11.8923 139.328 14.2377H134.076C134.02 13.4651 133.627 12.8028 132.899 12.251C132.171 11.6992 131.12 11.4232 129.748 11.4232C128.515 11.4232 127.563 11.6578 126.891 12.1268C126.218 12.5959 125.882 13.2029 125.882 13.9479C125.882 14.6653 126.148 15.2172 126.68 15.6035C127.241 15.9898 128.137 16.2519 129.37 16.3899L131.386 16.5968C134.076 16.8727 136.176 17.6039 137.689 18.7904C139.23 19.9769 140 21.5772 140 23.5915C140 25.0814 139.58 26.3783 138.739 27.482C137.927 28.5581 136.779 29.3996 135.294 30.0067C133.809 30.6137 132.059 30.9172 130.042 30.9172Z" fill="#1876D2"/>
</svg>
