<svg width="19" height="19" viewBox="0 0 19 19" fill="none" xmlns="http://www.w3.org/2000/svg">
<path d="M10.5245 1.95348L11.991 4.91073C12.191 5.32239 12.7242 5.71725 13.1742 5.79286L15.8322 6.23812C17.532 6.52377 17.932 7.76717 16.7071 8.99375L14.6407 11.0772C14.2907 11.4301 14.0991 12.1106 14.2074 12.5979L14.799 15.1771C15.2656 17.2186 14.1907 18.0083 12.3993 16.9413L9.90788 15.4543C9.45796 15.1855 8.71638 15.1855 8.25805 15.4543L5.76669 16.9413C3.98355 18.0083 2.90034 17.2102 3.36696 15.1771L3.95856 12.5979C4.06687 12.1106 3.87523 11.4301 3.52526 11.0772L1.45883 8.99375C0.242298 7.76717 0.633923 6.52377 2.33373 6.23812L4.99177 5.79286C5.43339 5.71725 5.96666 5.32239 6.16664 4.91073L7.63313 1.95348C8.43305 0.34884 9.73288 0.34884 10.5245 1.95348Z" stroke="#141B34" stroke-width="1.5" stroke-linecap="round" stroke-linejoin="round"/>
</svg>
