<svg width="16" height="16" viewBox="0 0 16 16" fill="none" xmlns="http://www.w3.org/2000/svg">
<path d="M10.3334 7.33333C10.3334 8.622 9.28869 9.66667 8.00002 9.66667C6.71135 9.66667 5.66669 8.622 5.66669 7.33333C5.66669 6.04467 6.71135 5 8.00002 5C9.28869 5 10.3334 6.04467 10.3334 7.33333Z" stroke="#0B1125"/>
<path d="M8 1.33334C11.2471 1.33334 14 4.022 14 7.28388C14 10.5977 11.2022 12.9231 8.618 14.5045C8.42967 14.6108 8.21667 14.6667 8 14.6667C7.78333 14.6667 7.57033 14.6108 7.382 14.5045C4.8026 12.9077 2 10.6091 2 7.28388C2 4.022 4.75296 1.33334 8 1.33334Z" stroke="#0B1125"/>
</svg>
